<?xml version="1.0" standalone="no"?>
<!DOCTYPE svg PUBLIC "-//W3C//DTD SVG 20010904//EN"
 "http://www.w3.org/TR/2001/REC-SVG-20010904/DTD/svg10.dtd">
<svg version="1.0" xmlns="http://www.w3.org/2000/svg"
 width="382.000000pt" height="31.000000pt" viewBox="0 0 382.000000 31.000000"
 preserveAspectRatio="xMidYMid meet">

<g transform="translate(0.000000,31.000000) scale(0.100000,-0.100000)"
fill="#000000" stroke="none">
<path d="M2205 280 c-14 -16 -15 -20 -4 -20 16 0 39 19 39 32 0 14 -16 9 -35
-12z"/>
<path d="M3209 281 c-19 -16 -20 -20 -8 -21 17 0 45 27 37 35 -3 3 -16 -3 -29
-14z"/>
<path d="M986 218 c-19 -26 -22 -158 -6 -189 7 -12 21 -19 41 -19 31 0 44 16
36 47 -4 16 -6 15 -12 -4 -4 -14 -15 -23 -27 -23 -17 0 -19 7 -16 92 3 94 18
125 37 76 8 -20 10 -21 16 -5 9 21 -11 47 -36 47 -10 0 -25 -10 -33 -22z"/>
<path d="M27 128 c-20 -119 -20 -118 -8 -118 5 0 12 13 16 30 10 44 55 44 55
0 0 -20 5 -30 15 -30 8 0 15 2 15 4 0 6 -29 167 -35 194 -3 13 -13 22 -23 22
-15 0 -21 -17 -35 -102z m47 10 c7 -43 5 -48 -12 -48 -17 0 -18 4 -11 43 4 23
8 46 9 51 1 21 8 -2 14 -46z"/>
<path d="M330 120 c0 -67 4 -110 10 -110 6 0 10 23 10 50 0 47 2 50 25 50 14
0 25 5 25 10 0 6 -11 10 -25 10 -22 0 -25 4 -25 40 0 36 3 40 25 40 14 0 25 5
25 10 0 6 -16 10 -35 10 l-35 0 0 -110z"/>
<path d="M500 120 l0 -110 40 0 c22 0 40 5 40 10 0 6 -13 10 -30 10 -28 0 -30
2 -30 40 0 36 3 40 25 40 14 0 25 5 25 10 0 6 -11 10 -25 10 -22 0 -25 4 -25
40 0 36 3 40 24 40 14 0 28 5 31 10 4 6 -10 10 -34 10 l-41 0 0 -110z"/>
<path d="M680 120 l0 -110 35 0 c19 0 35 5 35 10 0 6 -11 10 -25 10 l-25 0 0
100 c0 60 -4 100 -10 100 -6 0 -10 -43 -10 -110z"/>
<path d="M840 120 c0 -91 3 -110 15 -110 12 0 15 19 15 110 0 91 -3 110 -15
110 -12 0 -15 -19 -15 -110z"/>
<path d="M1160 120 c0 -91 3 -110 15 -110 12 0 15 19 15 110 0 91 -3 110 -15
110 -12 0 -15 -19 -15 -110z"/>
<path d="M1300 120 l0 -110 28 0 c49 0 57 13 60 98 5 98 -6 122 -53 122 l-35
0 0 -110z m58 3 c-3 -74 -6 -88 -20 -91 -16 -3 -18 6 -18 87 0 85 1 91 20 91
20 0 21 -5 18 -87z"/>
<path d="M1497 128 c-20 -119 -20 -118 -8 -118 5 0 12 13 16 30 5 23 12 30 31
30 20 0 24 -5 24 -30 0 -20 5 -30 15 -30 8 0 15 2 15 4 0 6 -29 167 -35 194
-3 13 -13 22 -23 22 -15 0 -21 -17 -35 -102z m47 10 c7 -43 5 -48 -12 -48 -17
0 -18 4 -11 43 4 23 8 46 9 51 1 21 8 -2 14 -46z"/>
<path d="M1680 119 l0 -110 37 3 c47 4 63 31 63 110 0 87 -11 108 -60 108
l-40 0 0 -111z m65 1 c0 -73 -2 -85 -17 -88 -16 -3 -18 6 -18 88 0 82 2 91 18
88 15 -3 17 -15 17 -88z"/>
<path d="M1880 120 l0 -110 40 0 c22 0 40 5 40 10 0 6 -11 10 -25 10 -22 0
-25 4 -25 40 0 33 3 40 19 40 11 0 23 4 26 10 4 6 -5 10 -19 10 -24 0 -26 4
-26 40 0 36 3 40 25 40 14 0 25 5 25 10 0 6 -18 10 -40 10 l-40 0 0 -110z"/>
<path d="M2170 120 l0 -110 40 0 c22 0 40 5 40 10 0 6 -11 10 -25 10 -22 0
-25 4 -25 40 0 36 3 40 25 40 14 0 25 5 25 10 0 6 -11 10 -25 10 -22 0 -25 4
-25 40 0 36 3 40 25 40 14 0 25 5 25 10 0 6 -18 10 -40 10 l-40 0 0 -110z"/>
<path d="M2474 120 c15 -88 23 -110 36 -110 13 0 21 22 36 110 15 82 17 110 8
110 -11 0 -34 -98 -34 -145 0 -40 -17 3 -29 73 -8 44 -18 72 -25 72 -9 0 -8
-27 8 -110z"/>
<path d="M2667 128 c-20 -119 -20 -118 -8 -118 5 0 12 13 16 30 5 23 12 30 31
30 20 0 24 -5 24 -30 0 -20 5 -30 15 -30 8 0 15 2 15 4 0 6 -29 167 -35 194
-3 13 -13 22 -23 22 -15 0 -21 -17 -35 -102z m47 10 c7 -43 5 -48 -12 -48 -17
0 -18 4 -11 43 4 23 8 46 9 51 1 21 8 -2 14 -46z"/>
<path d="M2850 120 c0 -91 3 -110 15 -110 11 0 15 12 15 46 0 52 16 51 26 -1
6 -34 20 -53 30 -42 3 3 0 24 -6 47 -8 30 -8 46 -1 53 15 15 14 90 -1 105 -7
7 -27 12 -45 12 l-33 0 0 -110z m66 66 c8 -32 -3 -66 -22 -66 -10 0 -14 13
-14 45 0 33 4 45 15 45 8 0 17 -11 21 -24z"/>
<path d="M3040 120 c0 -91 3 -110 15 -110 12 0 15 19 15 110 0 91 -3 110 -15
110 -12 0 -15 -19 -15 -110z"/>
<path d="M3200 227 c0 -1 -9 -49 -20 -107 -11 -58 -20 -106 -20 -107 0 -2 6
-3 14 -3 9 0 16 12 18 27 5 42 44 45 53 4 6 -30 25 -43 25 -18 0 6 -7 56 -17
110 -14 81 -19 97 -35 97 -10 0 -18 -1 -18 -3z m30 -97 c7 -36 5 -40 -13 -40
-17 0 -19 5 -13 31 3 17 6 38 6 47 0 27 12 4 20 -38z"/>
<path d="M3374 120 c15 -88 23 -110 36 -110 13 0 21 22 36 110 15 82 17 110 8
110 -11 0 -34 -98 -34 -145 0 -40 -17 3 -29 73 -8 44 -18 72 -25 72 -9 0 -8
-27 8 -110z"/>
<path d="M3560 120 l0 -110 40 0 c22 0 40 5 40 10 0 6 -11 10 -25 10 -22 0
-25 4 -25 40 0 33 3 40 19 40 11 0 23 4 26 10 4 6 -5 10 -19 10 -24 0 -26 4
-26 40 0 36 3 40 25 40 14 0 25 5 25 10 0 6 -18 10 -40 10 l-40 0 0 -110z"/>
<path d="M3740 120 l0 -110 40 0 c22 0 40 5 40 10 0 6 -11 10 -25 10 l-25 0 0
100 c0 82 -3 100 -15 100 -12 0 -15 -19 -15 -110z"/>
</g>
</svg>
